<svg xmlns="http://www.w3.org/2000/svg" version="1.1" width="360" height="185"><text x="180" y="175" style="font-size: 36px; font-weight: bold; text-align: center; text-anchor: middle; font-family: sans-serif;">577</text><g style="fill: #DD0000;" id="group-0"><circle cx="8.846623577360988" cy="176.19565217391298" r="3.0434782608695654"></circle><circle cx="16.45728606366009" cy="176.19565217391298" r="3.0434782608695654"></circle><circle cx="24.068140518006118" cy="176.19565217391303" r="3.0434782608695654"></circle><circle cx="31.679216492037494" cy="176.19565217391303" r="3.0434782608695654"></circle><circle cx="39.29054993222988" cy="176.19565217391303" r="3.0434782608695654"></circle><circle cx="46.90218500896595" cy="176.19565217391303" r="3.0434782608695654"></circle><circle cx="54.51417661163643" cy="176.19565217391306" r="3.0434782608695654"></circle><circle cx="62.12659381107861" cy="176.19565217391298" r="3.0434782608695654"></circle><circle cx="69.73952475725427" cy="176.19565217391303" r="3.0434782608695654"></circle><circle cx="77.35308375801709" cy="176.19565217391303" r="3.0434782608695654"></circle><circle cx="84.96742176350266" cy="176.195652173913" r="3.0434782608695654"></circle><circle cx="92.58274233529087" cy="176.19565217391303" r="3.0434782608695654"></circle><circle cx="9.240354521352149" cy="167.78956187281085" r="3.0434782608695654"></circle><circle cx="16.87098793168694" cy="167.76816589134978" r="3.0434782608695654"></circle><circle cx="24.503947324009093" cy="167.7445740147639" r="3.0434782608695654"></circle><circle cx="32.13962356036873" cy="167.718429989278" r="3.0434782608695654"></circle><circle cx="39.76426289630787" cy="167.85255418862505" r="3.0434782608695654"></circle></g><g style="fill: #cc2443;" id="group-1"><circle cx="47.42118344072942" cy="167.65662860023" r="3.0434782608695654"></circle><circle cx="55.06844202577958" cy="167.6197432994534" r="3.0434782608695654"></circle><circle cx="62.70027276302955" cy="167.7776050181384" r="3.0434782608695654"></circle><circle cx="70.35661104100575" cy="167.74550202069884" r="3.0434782608695654"></circle><circle cx="78.02068395403457" cy="167.70847547422994" r="3.0434782608695654"></circle><circle cx="10.046695349360741" cy="159.41297589309178" r="3.0434782608695654"></circle><circle cx="17.718675348414795" cy="159.3732209646739" r="3.0434782608695654"></circle><circle cx="85.6945431889947" cy="167.66530080117653" r="3.0434782608695654"></circle><circle cx="25.397441401687676" cy="159.32956849145276" r="3.0434782608695654"></circle><circle cx="93.3433093097327" cy="167.8810908654557" r="3.0434782608695654"></circle><circle cx="33.0841455195526" cy="159.2814193276245" r="3.0434782608695654"></circle><circle cx="40.732226635777444" cy="159.55226900295074" r="3.0434782608695654"></circle><circle cx="48.48744405418024" cy="159.16855630622288" r="3.0434782608695654"></circle><circle cx="56.20810980436615" cy="159.10184564059398" r="3.0434782608695654"></circle><circle cx="11.263697684212612" cy="151.08613474392217" r="3.0434782608695654"></circle><circle cx="63.87436209220544" cy="159.42211941262923" r="3.0434782608695654"></circle><circle cx="18.998093141179893" cy="151.0331511574147" r="3.0434782608695654"></circle><circle cx="26.74599283948058" cy="150.97540434153132" r="3.0434782608695654"></circle><circle cx="71.62034060029406" cy="159.367625159916" r="3.0434782608695654"></circle><circle cx="34.509689876818626" cy="150.9122441041211" r="3.0434782608695654"></circle><circle cx="79.38881857933742" cy="159.30573389779119" r="3.0434782608695654"></circle><circle cx="42.19102963201529" cy="151.32405037540943" r="3.0434782608695654"></circle><circle cx="12.888420859271768" cy="142.8291587350576" r="3.0434782608695654"></circle><circle cx="87.18580697697713" cy="159.23489556628962" r="3.0434782608695654"></circle><circle cx="50.09656551187471" cy="150.76647257071565" r="3.0434782608695654"></circle><circle cx="20.705837569435054" cy="142.770144244301" r="3.0434782608695654"></circle><circle cx="94.89288811980998" cy="159.67687259763352" r="3.0434782608695654"></circle><circle cx="57.927839709724566" cy="150.6818722306023" r="3.0434782608695654"></circle><circle cx="28.54563230943598" cy="142.70667122197892" r="3.0434782608695654"></circle><circle cx="65.64285210503215" cy="151.17196374553495" r="3.0434782608695654"></circle><circle cx="36.41158920694079" cy="142.63830613152808" r="3.0434782608695654"></circle><circle cx="44.13553043871876" cy="143.196898071116" r="3.0434782608695654"></circle><circle cx="73.52326034351589" cy="151.11143175470096" r="3.0434782608695654"></circle><circle cx="14.916939024030938" cy="134.66199935974345" r="3.0434782608695654"></circle><circle cx="22.837365380000744" cy="134.60618298329635" r="3.0434782608695654"></circle><circle cx="52.24190564168917" cy="142.4850597267925" r="3.0434782608695654"></circle><circle cx="81.4480894005771" cy="151.04514904935846" r="3.0434782608695654"></circle><circle cx="30.79106275053643" cy="134.54770733197518" r="3.0434782608695654"></circle><circle cx="60.219573458030254" cy="142.39927725081316" r="3.0434782608695654"></circle><circle cx="89.42912965028356" cy="150.9727467239372" r="3.0434782608695654"></circle><circle cx="38.78361643401966" cy="134.48669540295222" r="3.0434782608695654"></circle><circle cx="17.344350630221278" cy="126.60439108553007" r="3.0434782608695654"></circle><circle cx="67.99669060862968" cy="143.06936726318818" r="3.0434782608695654"></circle><circle cx="46.55887580256371" cy="135.19945565419403" r="3.0434782608695654"></circle><circle cx="97.21736980276792" cy="151.65769703026373" r="3.0434782608695654"></circle><circle cx="25.387005893856074" cy="126.56298663305674" r="3.0434782608695654"></circle><circle cx="76.05414743026539" cy="143.02561431627305" r="3.0434782608695654"></circle><circle cx="54.91460885454556" cy="134.35850199918886" r="3.0434782608695654"></circle><circle cx="33.475674960074585" cy="126.52252777581553" r="3.0434782608695654"></circle><circle cx="20.1647902755196" cy="118.67580366949126" r="3.0434782608695654"></circle><circle cx="84.18435050890238" cy="142.98346600545054" r="3.0434782608695654"></circle><circle cx="41.61800521977182" cy="126.484101395542" r="3.0434782608695654"></circle><circle cx="63.07257247868754" cy="134.2928711568354" r="3.0434782608695654"></circle><circle cx="49.45252481700339" cy="127.35990953559227" r="3.0434782608695654"></circle><circle cx="28.34797609231319" cy="118.66195317139814" r="3.0434782608695654"></circle><circle cx="70.92382924536612" cy="135.15580391548693" r="3.0434782608695654"></circle><circle cx="92.40633391625904" cy="142.94580117357907" r="3.0434782608695654"></circle><circle cx="36.59156704718862" cy="118.65475387682315" r="3.0434782608695654"></circle><circle cx="58.10364269873533" cy="126.42034439778661" r="3.0434782608695654"></circle><circle cx="23.37144287623521" cy="110.89539511306816" r="3.0434782608695654"></circle><circle cx="79.19807546022484" cy="135.15786053035077" r="3.0434782608695654"></circle><circle cx="100.29558988134619" cy="143.89657900368115" r="3.0434782608695654"></circle><circle cx="44.90547539157301" cy="118.65672568552569" r="3.0434782608695654"></circle><circle cx="31.71239866244059" cy="110.92410236849315" r="3.0434782608695654"></circle><circle cx="66.47346823295788" cy="126.40063882111833" r="3.0434782608695654"></circle><circle cx="52.80627902407956" cy="119.70588963210554" r="3.0434782608695654"></circle><circle cx="87.57880549354861" cy="135.1760635109857" r="3.0434782608695654"></circle><circle cx="40.12956769129743" cy="110.96754365031772" r="3.0434782608695654"></circle><circle cx="74.40928516358049" cy="127.47178006733677" r="3.0434782608695654"></circle><circle cx="26.956560134730534" cy="103.28196537021387" r="3.0434782608695654"></circle><circle cx="61.79584339995168" cy="118.70335424967669" r="3.0434782608695654"></circle></g><g style="fill: #00c000;" id="group-2"><circle cx="48.63526332699971" cy="111.03019616070364" r="3.0434782608695654"></circle><circle cx="35.47132295372769" cy="103.370019866245" r="3.0434782608695654"></circle><circle cx="96.09329595451874" cy="135.2190999991976" r="3.0434782608695654"></circle><circle cx="82.9365025045225" cy="127.5545720097221" r="3.0434782608695654"></circle><circle cx="56.60831835815442" cy="112.26437198671906" r="3.0434782608695654"></circle><circle cx="70.40632485605212" cy="118.75956154402348" r="3.0434782608695654"></circle><circle cx="44.07926313697689" cy="103.48352364028405" r="3.0434782608695654"></circle><circle cx="30.911479261784653" cy="95.8539109206961" r="3.0434782608695654"></circle><circle cx="104.09952106699564" cy="136.46418373636988" r="3.0434782608695654"></circle><circle cx="78.43521770880618" cy="120.05662716277384" r="3.0434782608695654"></circle><circle cx="91.60813656148082" cy="127.67657356177173" r="3.0434782608695654"></circle><circle cx="39.61474879023776" cy="96.01980241260854" r="3.0434782608695654"></circle><circle cx="52.79515719538605" cy="103.62948311127401" r="3.0434782608695654"></circle><circle cx="65.97597019904909" cy="111.23938594136006" r="3.0434782608695654"></circle><circle cx="60.84524280488258" cy="105.06158369348363" r="3.0434782608695654"></circle><circle cx="35.22664390866108" cy="88.62918031832154" r="3.0434782608695654"></circle><circle cx="48.4290278458202" cy="96.22472232037553" r="3.0434782608695654"></circle><circle cx="87.24738046037493" cy="120.26059063168138" r="3.0434782608695654"></circle><circle cx="74.85271382915953" cy="111.40544376741833" r="3.0434782608695654"></circle><circle cx="100.46014088849033" cy="127.85525145156959" r="3.0434782608695654"></circle><circle cx="44.131653074899475" cy="88.8930043965564" r="3.0434782608695654"></circle><circle cx="57.37153694101093" cy="96.47881747372178" r="3.0434782608695654"></circle><circle cx="82.98101974294411" cy="112.94830040303748" r="3.0434782608695654"></circle><circle cx="70.62676826323319" cy="104.0592494294079" r="3.0434782608695654"></circle><circle cx="39.89162725830082" cy="81.6252308214931" r="3.0434782608695654"></circle><circle cx="108.59452844920314" cy="129.42818341597427" r="3.0434782608695654"></circle><circle cx="96.24466471611899" cy="120.53651298607535" r="3.0434782608695654"></circle><circle cx="65.5021196285982" cy="98.1229104620083" r="3.0434782608695654"></circle><circle cx="53.16605871506206" cy="89.21250525527728" r="3.0434782608695654"></circle><circle cx="49.010019115160446" cy="82.00858582592687" r="3.0434782608695654"></circle><circle cx="79.79180033151668" cy="104.37274530277584" r="3.0434782608695654"></circle><circle cx="92.10528508407468" cy="113.31893407431004" r="3.0434782608695654"></circle><circle cx="62.34941887700436" cy="89.60161149545225" r="3.0434782608695654"></circle><circle cx="44.89515721984519" cy="74.85898621089356" r="3.0434782608695654"></circle><circle cx="105.47148485686488" cy="120.91392364340547" r="3.0434782608695654"></circle><circle cx="75.72903991099469" cy="97.19258306234617" r="3.0434782608695654"></circle><circle cx="58.276412762246714" cy="82.46751221327732" r="3.0434782608695654"></circle><circle cx="88.0234231239585" cy="106.1831844690796" r="3.0434782608695654"></circle></g><g style="fill: #ff8080;" id="group-3"><circle cx="70.5625360016686" cy="91.47280714735125" r="3.0434782608695654"></circle><circle cx="54.236868591984106" cy="75.38486188655348" r="3.0434782608695654"></circle><circle cx="101.45653989481691" cy="113.8049295560763" r="3.0434782608695654"></circle><circle cx="50.22514366561015" cy="68.34679589622206" r="3.0434782608695654"></circle><circle cx="113.73968484741775" cy="122.8526410419477" r="3.0434782608695654"></circle><circle cx="67.71250474396683" cy="83.02038207992332" r="3.0434782608695654"></circle><circle cx="85.20044086788864" cy="97.69441985992229" r="3.0434782608695654"></circle><circle cx="97.48156593542704" cy="106.77054211132844" r="3.0434782608695654"></circle><circle cx="63.74504816501994" cy="76.00959641514702" r="3.0434782608695654"></circle><circle cx="81.26172385678298" cy="90.66773123873324" r="3.0434782608695654"></circle><circle cx="76.00865685032545" cy="85.13471156064101" r="3.0434782608695654"></circle><circle cx="59.79829608714089" cy="69.03945421686716" r="3.0434782608695654"></circle><circle cx="93.53661780618744" cy="99.79590728293849" r="3.0434782608695654"></circle><circle cx="55.86870764469935" cy="62.1043954107945" r="3.0434782608695654"></circle><circle cx="111.08672172348929" cy="114.45136106796696" r="3.0434782608695654"></circle><circle cx="73.44323507267721" cy="76.75667706325507" r="3.0434782608695654"></circle><circle cx="107.20795975896928" cy="107.52806506019952" r="3.0434782608695654"></circle><circle cx="91.05329171400149" cy="91.40176063305259" r="3.0434782608695654"></circle><circle cx="69.55586853524692" cy="69.8577660981471" r="3.0434782608695654"></circle><circle cx="65.67950607693808" cy="62.98924402760008" r="3.0434782608695654"></circle><circle cx="81.82128771310046" cy="79.13096186419567" r="3.0434782608695654"></circle><circle cx="87.20198214831167" cy="84.51162740643701" r="3.0434782608695654"></circle><circle cx="103.34451534931023" cy="100.65403516179376" r="3.0434782608695654"></circle><circle cx="119.48814345428909" cy="116.79742712997118" r="3.0434782608695654"></circle><circle cx="61.81221250266593" cy="56.14686838946533" r="3.0434782608695654"></circle><circle cx="99.49238395164113" cy="93.81916276125922" r="3.0434782608695654"></circle><circle cx="79.52284667617229" cy="70.831004663697" r="3.0434782608695654"></circle><circle cx="75.69177029714126" cy="64.03012856715847" r="3.0434782608695654"></circle><circle cx="71.86485229396979" cy="57.25032719131022" r="3.0434782608695654"></circle><circle cx="117.26035210253475" cy="108.51992885873761" r="3.0434782608695654"></circle><circle cx="97.3229276717738" cy="85.52425366756461" r="3.0434782608695654"></circle><circle cx="68.04129683202848" cy="50.488610121744664" r="3.0434782608695654"></circle><circle cx="87.97994239032492" cy="73.48271784227583" r="3.0434782608695654"></circle><circle cx="93.52529443763396" cy="78.74968288606954" r="3.0434782608695654"></circle><circle cx="113.45941563379452" cy="101.74903765080967" r="3.0434782608695654"></circle><circle cx="109.65955543781611" cy="95.00548651864445" r="3.0434782608695654"></circle><circle cx="85.93143408296118" cy="65.2627663349449" r="3.0434782608695654"></circle><circle cx="105.8602363760631" cy="88.28354346821361" r="3.0434782608695654"></circle><circle cx="82.13469302995044" cy="58.543836897619286" r="3.0434782608695654"></circle><circle cx="78.33787935217164" cy="51.83797142120542" r="3.0434782608695654"></circle><circle cx="125.7875643772901" cy="111.31767458906525" r="3.0434782608695654"></circle><circle cx="74.54090917402183" cy="45.14329276817741" r="3.0434782608695654"></circle><circle cx="94.462915146268" cy="68.20988632494554" r="3.0434782608695654"></circle><circle cx="103.97997057788649" cy="80.0894396948029" r="3.0434782608695654"></circle><circle cx="100.20555919685317" cy="73.40568197749714" r="3.0434782608695654"></circle><circle cx="123.94235203290182" cy="103.16768848293877" r="3.0434782608695654"></circle><circle cx="92.64801471023385" cy="60.070193243154904" r="3.0434782608695654"></circle><circle cx="88.86567262702073" cy="53.41503944714137" r="3.0434782608695654"></circle><circle cx="120.16796390834013" cy="96.50754564934135" r="3.0434782608695654"></circle><circle cx="85.0813665244394" cy="46.76657565318848" r="3.0434782608695654"></circle><circle cx="116.38944202008928" cy="89.85820959941826" r="3.0434782608695654"></circle><circle cx="81.29534438773247" cy="40.12383232403355" r="3.0434782608695654"></circle><circle cx="112.6075805903926" cy="83.21738402440305" r="3.0434782608695654"></circle><circle cx="101.24735720944214" cy="63.33105102788085" r="3.0434782608695654"></circle><circle cx="110.99322696352648" cy="75.12278508212539" r="3.0434782608695654"></circle><circle cx="107.21520146066734" cy="68.50168378240801" r="3.0434782608695654"></circle><circle cx="132.58059119504915" cy="106.46327673475687" r="3.0434782608695654"></circle><circle cx="99.65059756367818" cy="55.27028657563694" r="3.0434782608695654"></circle><circle cx="95.86489711477152" cy="48.6588323244149" r="3.0434782608695654"></circle><circle cx="92.077373556348" cy="42.04963173918167" r="3.0434782608695654"></circle><circle cx="88.28828159873879" cy="35.44235741013488" r="3.0434782608695654"></circle><circle cx="131.07857831455073" cy="98.4380083069798" r="3.0434782608695654"></circle><circle cx="127.28752103136202" cy="91.83959484353872" r="3.0434782608695654"></circle><circle cx="123.49448427714957" cy="85.2425614738732" r="3.0434782608695654"></circle><circle cx="119.6998796389143" cy="78.64661607327123" r="3.0434782608695654"></circle><circle cx="108.30935730145592" cy="58.86340705539949" r="3.0434782608695654"></circle></g><g style="fill: #e1a5e1;" id="group-4"><circle cx="95.50282363556047" cy="31.110179966230685" r="3.0434782608695654"></circle><circle cx="99.30728839408819" cy="37.69968855364192" r="3.0434782608695654"></circle><circle cx="103.11176496728308" cy="44.28921495530349" r="3.0434782608695654"></circle><circle cx="106.91625523897255" cy="50.878761876666005" r="3.0434782608695654"></circle><circle cx="114.52528665100667" cy="64.05793114819566" r="3.0434782608695654"></circle><circle cx="118.32983422026105" cy="70.64756250299246" r="3.0434782608695654"></circle><circle cx="139.80537318933196" cy="102.2784330089059" r="3.0434782608695654"></circle><circle cx="115.62402591059585" cy="54.822700297551926" r="3.0434782608695654"></circle><circle cx="102.92153785862558" cy="27.13776791773539" r="3.0434782608695654"></circle><circle cx="127.1008308801182" cy="74.5946355473952" r="3.0434782608695654"></circle><circle cx="106.75187669964666" cy="33.728318608755984" r="3.0434782608695654"></circle><circle cx="110.58494574485258" cy="40.31904887691709" r="3.0434782608695654"></circle><circle cx="130.93277883623955" cy="81.18576382724696" r="3.0434782608695654"></circle><circle cx="114.42119898921165" cy="46.90999759266231" r="3.0434782608695654"></circle><circle cx="134.76918007663912" cy="87.77725115010391" r="3.0434782608695654"></circle><circle cx="138.61120722238093" cy="94.36921218936993" r="3.0434782608695654"></circle><circle cx="122.10564001391417" cy="60.09276710902348" r="3.0434782608695654"></circle><circle cx="125.9554145871407" cy="66.68474188623324" r="3.0434782608695654"></circle><circle cx="110.52649828309997" cy="23.534719881875045" r="3.0434782608695654"></circle><circle cx="123.16558301312133" cy="51.223171934863444" r="3.0434782608695654"></circle><circle cx="114.39133302149948" cy="30.14608726713346" r="3.0434782608695654"></circle><circle cx="118.26244287803696" cy="36.76001988094775" r="3.0434782608695654"></circle><circle cx="122.1408566124845" cy="43.376987995211245" r="3.0434782608695654"></circle></g><g style="fill: #ff9900;" id="group-5"><circle cx="134.77255180539805" cy="71.08218291406635" r="3.0434782608695654"></circle><circle cx="129.9249711756559" cy="56.622559168985475" r="3.0434782608695654"></circle><circle cx="138.66045690413998" cy="77.71174241505759" r="3.0434782608695654"></circle><circle cx="147.39612849773454" cy="98.80124654242677" r="3.0434782608695654"></circle><circle cx="133.83423623748035" cy="63.25289215547713" r="3.0434782608695654"></circle><circle cx="142.56154670311665" cy="84.34842034180724" r="3.0434782608695654"></circle><circle cx="118.29932889379634" cy="20.30974197435993" r="3.0434782608695654"></circle><circle cx="122.20533348468678" cy="26.962524633901857" r="3.0434782608695654"></circle><circle cx="146.4792030428289" cy="90.99426894848875" r="3.0434782608695654"></circle><circle cx="130.90744893310557" cy="48.077508246317194" r="3.0434782608695654"></circle><circle cx="126.12165841238193" cy="33.622603617696214" r="3.0434782608695654"></circle><circle cx="130.0499529045904" cy="40.291300636058835" r="3.0434782608695654"></circle><circle cx="142.67577394445811" cy="68.12723701313573" r="3.0434782608695654"></circle><circle cx="137.95100330391455" cy="53.66163173991058" r="3.0434782608695654"></circle><circle cx="126.22124804750048" cy="17.47062677262628" r="3.0434782608695654"></circle><circle cx="130.17308986009118" cy="24.186100202983113" r="3.0434782608695654"></circle><circle cx="141.92938071050094" cy="60.36809421917809" r="3.0434782608695654"></circle><circle cx="146.63194299193574" cy="74.84098595629297" r="3.0434782608695654"></circle><circle cx="134.13945952326904" cy="30.916034762029955" r="3.0434782608695654"></circle><circle cx="138.82233802059258" cy="45.39679589747572" r="3.0434782608695654"></circle><circle cx="150.61109220204162" cy="81.57665635219658" r="3.0434782608695654"></circle><circle cx="155.28374305956478" cy="96.06337722510877" r="3.0434782608695654"></circle><circle cx="138.12259241347925" cy="37.66303847338124" r="3.0434782608695654"></circle><circle cx="134.2731138554245" cy="15.024234486478449" r="3.0434782608695654"></circle><circle cx="154.6188126367062" cy="88.34052522140867" r="3.0434782608695654"></circle><circle cx="138.27340486907633" cy="21.824200325001232" r="3.0434782608695654"></circle><circle cx="146.15060634091162" cy="51.22220701269398" r="3.0434782608695654"></circle><circle cx="150.77004386490276" cy="65.74492303052527" r="3.0434782608695654"></circle><circle cx="142.29224660509973" cy="28.648279832029914" r="3.0434782608695654"></circle><circle cx="150.20291590328267" cy="58.04386561894237" r="3.0434782608695654"></circle><circle cx="146.8823548179092" cy="43.190482866325105" r="3.0434782608695654"></circle><circle cx="154.80022370535238" cy="72.59042529719376" r="3.0434782608695654"></circle><circle cx="146.33234422446765" cy="35.500806793331904" r="3.0434782608695654"></circle><circle cx="142.43547043612858" cy="12.976476381629277" r="3.0434782608695654"></circle><circle cx="158.86252120587537" cy="79.48099947473393" r="3.0434782608695654"></circle><circle cx="146.48472857635315" cy="19.883108556765173" r="3.0434782608695654"></circle></g><g style="fill: #ffeb00;" id="group-6"><circle cx="154.48993375849543" cy="49.31435450622962" r="3.0434782608695654"></circle><circle cx="163.39639990149212" cy="94.08975344134538" r="3.0434782608695654"></circle><circle cx="150.55602273440348" cy="26.826013740331316" r="3.0434782608695654"></circle><circle cx="162.96408202091214" cy="86.42948387837312" r="3.0434782608695654"></circle><circle cx="159.0139302371733" cy="63.94743507845217" r="3.0434782608695654"></circle><circle cx="155.05909237520083" cy="41.466345144555646" r="3.0434782608695654"></circle><circle cx="150.68859492714938" cy="11.33230049619256" r="3.0434782608695654"></circle><circle cx="154.65232849863182" cy="33.81168503516959" r="3.0434782608695654"></circle><circle cx="158.61607381242675" cy="56.29109718924088" r="3.0434782608695654"></circle><circle cx="154.78521572104822" cy="18.367988944605123" r="3.0434782608695654"></circle><circle cx="163.11712501542044" cy="70.97333355828466" r="3.0434782608695654"></circle><circle cx="158.90646430241162" cy="25.45460014717778" r="3.0434782608695654"></circle><circle cx="162.93456227069325" cy="47.94594950219614" r="3.0434782608695654"></circle><circle cx="167.25915153305297" cy="78.07584556783019" r="3.0434782608695654"></circle><circle cx="159.01254514173974" cy="10.095679684641608" r="3.0434782608695654"></circle><circle cx="163.32373236868395" cy="40.23045933163811" r="3.0434782608695654"></circle><circle cx="163.05530448103949" cy="32.60120361221585" r="3.0434782608695654"></circle><circle cx="167.3652359049492" cy="62.743973778646584" r="3.0434782608695654"></circle><circle cx="163.1527838334506" cy="17.28287228603462" r="3.0434782608695654"></circle><circle cx="167.12943219256687" cy="55.11800202530514" r="3.0434782608695654"></circle><circle cx="171.66023303330002" cy="92.8983450964269" r="3.0434782608695654"></circle><circle cx="171.44739078324045" cy="85.2766297884031" r="3.0434782608695654"></circle><circle cx="167.31899260919727" cy="24.53807567301715" r="3.0434782608695654"></circle><circle cx="171.53359637420877" cy="69.99924785355698" r="3.0434782608695654"></circle><circle cx="167.38720775556595" cy="9.269602018122846" r="3.0434782608695654"></circle><circle cx="171.44963392701894" cy="47.12264053727065" r="3.0434782608695654"></circle><circle cx="171.64714666875716" cy="39.48718121828568" r="3.0434782608695654"></circle><circle cx="171.5137596906696" cy="31.873325804533003" r="3.0434782608695654"></circle><circle cx="171.56517198282506" cy="16.630645406287886" r="3.0434782608695654"></circle><circle cx="175.7433035592914" cy="77.37084716425763" r="3.0434782608695654"></circle><circle cx="175.78121387551005" cy="62.1406991680499" r="3.0434782608695654"></circle><circle cx="175.70309928051765" cy="54.530076998332625" r="3.0434782608695654"></circle><circle cx="175.76884620865053" cy="24.0791380171079" r="3.0434782608695654"></circle><circle cx="175.79234690692843" cy="8.856063564320857" r="3.0434782608695654"></circle><circle cx="180" cy="92.5" r="3.0434782608695654"></circle><circle cx="180" cy="84.8913043478261" r="3.0434782608695654"></circle><circle cx="180" cy="69.67391304347825" r="3.0434782608695654"></circle><circle cx="180" cy="46.847826086956516" r="3.0434782608695654"></circle><circle cx="180" cy="39.2391304347826" r="3.0434782608695654"></circle><circle cx="180" cy="31.6304347826087" r="3.0434782608695654"></circle><circle cx="180" cy="16.41304347826088" r="3.0434782608695654"></circle><circle cx="184.2076530930716" cy="8.856063564320857" r="3.0434782608695654"></circle><circle cx="184.23115379134953" cy="24.0791380171079" r="3.0434782608695654"></circle><circle cx="184.29690071948232" cy="54.530076998332625" r="3.0434782608695654"></circle><circle cx="184.21878612448998" cy="62.1406991680499" r="3.0434782608695654"></circle><circle cx="184.25669644070865" cy="77.37084716425763" r="3.0434782608695654"></circle><circle cx="188.43482801717494" cy="16.630645406287886" r="3.0434782608695654"></circle><circle cx="188.48624030933047" cy="31.873325804533025" r="3.0434782608695654"></circle><circle cx="188.3528533312429" cy="39.48718121828568" r="3.0434782608695654"></circle><circle cx="188.55036607298106" cy="47.12264053727065" r="3.0434782608695654"></circle><circle cx="192.6127922444341" cy="9.269602018122846" r="3.0434782608695654"></circle><circle cx="188.46640362579123" cy="69.99924785355698" r="3.0434782608695654"></circle><circle cx="192.6810073908028" cy="24.53807567301715" r="3.0434782608695654"></circle><circle cx="188.55260921675958" cy="85.2766297884031" r="3.0434782608695654"></circle><circle cx="188.33976696669998" cy="92.8983450964269" r="3.0434782608695654"></circle><circle cx="192.87056780743313" cy="55.11800202530514" r="3.0434782608695654"></circle><circle cx="196.8472161665494" cy="17.28287228603462" r="3.0434782608695654"></circle><circle cx="192.6347640950508" cy="62.743973778646584" r="3.0434782608695654"></circle><circle cx="196.94469551896057" cy="32.60120361221585" r="3.0434782608695654"></circle><circle cx="196.67626763131608" cy="40.23045933163812" r="3.0434782608695654"></circle><circle cx="200.9874548582603" cy="10.095679684641608" r="3.0434782608695654"></circle><circle cx="192.74084846694703" cy="78.07584556783019" r="3.0434782608695654"></circle><circle cx="197.0654377293068" cy="47.94594950219614" r="3.0434782608695654"></circle><circle cx="201.0935356975884" cy="25.45460014717778" r="3.0434782608695654"></circle><circle cx="196.88287498457962" cy="70.9733335582847" r="3.0434782608695654"></circle><circle cx="205.21478427895178" cy="18.367988944605123" r="3.0434782608695654"></circle><circle cx="201.38392618757322" cy="56.29109718924088" r="3.0434782608695654"></circle><circle cx="205.34767150136824" cy="33.81168503516961" r="3.0434782608695654"></circle><circle cx="209.31140507285062" cy="11.33230049619256" r="3.0434782608695654"></circle><circle cx="204.94090762479922" cy="41.46634514455567" r="3.0434782608695654"></circle><circle cx="200.98606976282673" cy="63.94743507845217" r="3.0434782608695654"></circle><circle cx="197.03591797908786" cy="86.42948387837312" r="3.0434782608695654"></circle><circle cx="209.4439772655966" cy="26.826013740331316" r="3.0434782608695654"></circle><circle cx="196.60360009850788" cy="94.08975344134538" r="3.0434782608695654"></circle><circle cx="205.51006624150457" cy="49.31435450622962" r="3.0434782608695654"></circle><circle cx="213.51527142364685" cy="19.883108556765173" r="3.0434782608695654"></circle><circle cx="201.13747879412466" cy="79.48099947473395" r="3.0434782608695654"></circle><circle cx="217.56452956387142" cy="12.976476381629258" r="3.0434782608695654"></circle><circle cx="213.6676557755324" cy="35.50080679333192" r="3.0434782608695654"></circle><circle cx="205.19977629464765" cy="72.59042529719379" r="3.0434782608695654"></circle><circle cx="213.1176451820908" cy="43.190482866325105" r="3.0434782608695654"></circle><circle cx="209.7970840967173" cy="58.04386561894237" r="3.0434782608695654"></circle><circle cx="217.70775339490032" cy="28.648279832029914" r="3.0434782608695654"></circle><circle cx="209.2299561350973" cy="65.74492303052527" r="3.0434782608695654"></circle><circle cx="213.8493936590884" cy="51.22220701269398" r="3.0434782608695654"></circle><circle cx="221.7265951309237" cy="21.824200325001232" r="3.0434782608695654"></circle><circle cx="205.3811873632938" cy="88.34052522140867" r="3.0434782608695654"></circle><circle cx="225.72688614457556" cy="15.024234486478449" r="3.0434782608695654"></circle><circle cx="221.8774075865208" cy="37.663038473381256" r="3.0434782608695654"></circle><circle cx="204.71625694043522" cy="96.06337722510877" r="3.0434782608695654"></circle><circle cx="209.3889077979584" cy="81.57665635219658" r="3.0434782608695654"></circle><circle cx="221.17766197940747" cy="45.39679589747574" r="3.0434782608695654"></circle><circle cx="225.86054047673102" cy="30.916034762029973" r="3.0434782608695654"></circle></g><g style="fill: #0001b8;" id="group-7"><circle cx="213.3680570080643" cy="74.840985956293" r="3.0434782608695654"></circle><circle cx="218.07061928949906" cy="60.36809421917809" r="3.0434782608695654"></circle><circle cx="229.82691013990876" cy="24.186100202983113" r="3.0434782608695654"></circle><circle cx="233.77875195249953" cy="17.47062677262628" r="3.0434782608695654"></circle><circle cx="222.04899669608548" cy="53.66163173991058" r="3.0434782608695654"></circle><circle cx="217.32422605554189" cy="68.12723701313573" r="3.0434782608695654"></circle><circle cx="229.95004709540964" cy="40.29130063605886" r="3.0434782608695654"></circle><circle cx="233.8783415876181" cy="33.622603617696214" r="3.0434782608695654"></circle><circle cx="229.09255106689443" cy="48.077508246317194" r="3.0434782608695654"></circle><circle cx="213.52079695717111" cy="90.99426894848875" r="3.0434782608695654"></circle><circle cx="237.7946665153132" cy="26.962524633901857" r="3.0434782608695654"></circle><circle cx="241.70067110620369" cy="20.309741974359948" r="3.0434782608695654"></circle><circle cx="217.43845329688335" cy="84.34842034180726" r="3.0434782608695654"></circle><circle cx="226.16576376251965" cy="63.25289215547713" r="3.0434782608695654"></circle><circle cx="212.60387150226546" cy="98.80124654242677" r="3.0434782608695654"></circle><circle cx="221.33954309586005" cy="77.7117424150576" r="3.0434782608695654"></circle><circle cx="230.07502882434412" cy="56.6225591689855" r="3.0434782608695654"></circle><circle cx="225.22744819460195" cy="71.08218291406638" r="3.0434782608695654"></circle><circle cx="237.85914338751553" cy="43.376987995211266" r="3.0434782608695654"></circle><circle cx="241.7375571219631" cy="36.760019880947766" r="3.0434782608695654"></circle><circle cx="245.60866697850054" cy="30.14608726713348" r="3.0434782608695654"></circle><circle cx="236.83441698687867" cy="51.223171934863466" r="3.0434782608695654"></circle><circle cx="249.47350171690007" cy="23.534719881875063" r="3.0434782608695654"></circle><circle cx="234.04458541285928" cy="66.68474188623324" r="3.0434782608695654"></circle><circle cx="237.89435998608582" cy="60.09276710902348" r="3.0434782608695654"></circle><circle cx="221.3887927776191" cy="94.36921218936995" r="3.0434782608695654"></circle><circle cx="225.2308199233609" cy="87.77725115010395" r="3.0434782608695654"></circle><circle cx="245.5788010107884" cy="46.90999759266233" r="3.0434782608695654"></circle><circle cx="229.06722116376045" cy="81.18576382724696" r="3.0434782608695654"></circle><circle cx="249.41505425514748" cy="40.31904887691711" r="3.0434782608695654"></circle><circle cx="253.24812330035337" cy="33.728318608756005" r="3.0434782608695654"></circle><circle cx="232.89916911988186" cy="74.59463554739521" r="3.0434782608695654"></circle><circle cx="257.07846214137453" cy="27.137767917735427" r="3.0434782608695654"></circle><circle cx="244.37597408940417" cy="54.822700297551926" r="3.0434782608695654"></circle></g><g style="fill: #0066cc;" id="group-8"><circle cx="220.19462681066807" cy="102.2784330089059" r="3.0434782608695654"></circle><circle cx="241.6701657797389" cy="70.64756250299241" r="3.0434782608695654"></circle><circle cx="245.47471334899333" cy="64.05793114819568" r="3.0434782608695654"></circle><circle cx="253.0837447610275" cy="50.87876187666602" r="3.0434782608695654"></circle><circle cx="256.888235032717" cy="44.289214955303535" r="3.0434782608695654"></circle><circle cx="260.69271160591177" cy="37.699688553641906" r="3.0434782608695654"></circle><circle cx="264.4971763644396" cy="31.110179966230703" r="3.0434782608695654"></circle><circle cx="251.69064269854408" cy="58.86340705539951" r="3.0434782608695654"></circle><circle cx="240.30012036108573" cy="78.64661607327126" r="3.0434782608695654"></circle><circle cx="236.50551572285045" cy="85.24256147387322" r="3.0434782608695654"></circle><circle cx="232.71247896863798" cy="91.83959484353872" r="3.0434782608695654"></circle><circle cx="228.9214216854493" cy="98.43800830697981" r="3.0434782608695654"></circle><circle cx="271.7117184012613" cy="35.44235741013492" r="3.0434782608695654"></circle><circle cx="267.92262644365206" cy="42.04963173918169" r="3.0434782608695654"></circle><circle cx="264.1351028852285" cy="48.65883232441494" r="3.0434782608695654"></circle><circle cx="260.34940243632184" cy="55.27028657563698" r="3.0434782608695654"></circle><circle cx="227.41940880495085" cy="106.46327673475687" r="3.0434782608695654"></circle><circle cx="252.78479853933268" cy="68.50168378240801" r="3.0434782608695654"></circle><circle cx="249.00677303647348" cy="75.12278508212536" r="3.0434782608695654"></circle><circle cx="258.75264279055784" cy="63.33105102788087" r="3.0434782608695654"></circle><circle cx="247.39241940960744" cy="83.21738402440309" r="3.0434782608695654"></circle><circle cx="278.70465561226763" cy="40.12383232403361" r="3.0434782608695654"></circle><circle cx="243.61055797991074" cy="89.85820959941827" r="3.0434782608695654"></circle><circle cx="274.9186334755606" cy="46.76657565318848" r="3.0434782608695654"></circle><circle cx="239.8320360916599" cy="96.50754564934137" r="3.0434782608695654"></circle><circle cx="271.1343273729793" cy="53.41503944714139" r="3.0434782608695654"></circle><circle cx="267.3519852897662" cy="60.07019324315496" r="3.0434782608695654"></circle><circle cx="236.0576479670982" cy="103.16768848293883" r="3.0434782608695654"></circle><circle cx="259.79444080314687" cy="73.40568197749718" r="3.0434782608695654"></circle><circle cx="256.02002942211345" cy="80.08943969480288" r="3.0434782608695654"></circle><circle cx="265.5370848537321" cy="68.20988632494559" r="3.0434782608695654"></circle><circle cx="285.4590908259782" cy="45.143292768177474" r="3.0434782608695654"></circle><circle cx="234.21243562270993" cy="111.31767458906526" r="3.0434782608695654"></circle><circle cx="281.6621206478284" cy="51.83797142120544" r="3.0434782608695654"></circle><circle cx="277.8653069700496" cy="58.54383689761931" r="3.0434782608695654"></circle><circle cx="254.13976362393694" cy="88.28354346821361" r="3.0434782608695654"></circle><circle cx="274.0685659170389" cy="65.26276633494497" r="3.0434782608695654"></circle><circle cx="250.34044456218393" cy="95.00548651864447" r="3.0434782608695654"></circle><circle cx="246.5405843662055" cy="101.74903765080971" r="3.0434782608695654"></circle><circle cx="266.474705562366" cy="78.74968288606954" r="3.0434782608695654"></circle><circle cx="272.0200576096751" cy="73.48271784227586" r="3.0434782608695654"></circle><circle cx="291.95870316797163" cy="50.488610121744706" r="3.0434782608695654"></circle><circle cx="262.6770723282262" cy="85.52425366756458" r="3.0434782608695654"></circle><circle cx="242.73964789746526" cy="108.51992885873766" r="3.0434782608695654"></circle><circle cx="288.13514770603024" cy="57.250327191310255" r="3.0434782608695654"></circle><circle cx="284.3082297028588" cy="64.03012856715851" r="3.0434782608695654"></circle><circle cx="280.47715332382774" cy="70.831004663697" r="3.0434782608695654"></circle></g><g style="fill: #162561;" id="group-9"><circle cx="260.50761604835895" cy="93.81916276125924" r="3.0434782608695654"></circle><circle cx="298.1877874973341" cy="56.14686838946539" r="3.0434782608695654"></circle><circle cx="240.5118565457109" cy="116.79742712997118" r="3.0434782608695654"></circle><circle cx="256.6554846506898" cy="100.65403516179376" r="3.0434782608695654"></circle><circle cx="272.7980178516883" cy="84.51162740643703" r="3.0434782608695654"></circle><circle cx="278.17871228689955" cy="79.1309618641957" r="3.0434782608695654"></circle><circle cx="294.32049392306203" cy="62.98924402760014" r="3.0434782608695654"></circle><circle cx="290.4441314647531" cy="69.85776609814711" r="3.0434782608695654"></circle><circle cx="268.94670828599845" cy="91.40176063305259" r="3.0434782608695654"></circle><circle cx="252.79204024103075" cy="107.52806506019954" r="3.0434782608695654"></circle><circle cx="286.55676492732283" cy="76.75667706325507" r="3.0434782608695654"></circle><circle cx="248.91327827651074" cy="114.45136106796699" r="3.0434782608695654"></circle><circle cx="304.1312923553007" cy="62.10439541079456" r="3.0434782608695654"></circle><circle cx="266.4633821938126" cy="99.79590728293854" r="3.0434782608695654"></circle><circle cx="300.2017039128591" cy="69.03945421686717" r="3.0434782608695654"></circle><circle cx="283.99134314967455" cy="85.13471156064101" r="3.0434782608695654"></circle></g><g style="fill: #0d378a;" id="group-10"><circle cx="278.73827614321704" cy="90.66773123873327" r="3.0434782608695654"></circle><circle cx="296.25495183498015" cy="76.00959641514709" r="3.0434782608695654"></circle><circle cx="262.518434064573" cy="106.77054211132847" r="3.0434782608695654"></circle><circle cx="274.7995591321113" cy="97.69441985992225" r="3.0434782608695654"></circle><circle cx="292.2874952560332" cy="83.02038207992334" r="3.0434782608695654"></circle><circle cx="246.26031515258225" cy="122.85264104194772" r="3.0434782608695654"></circle><circle cx="309.77485633438994" cy="68.34679589622212" r="3.0434782608695654"></circle><circle cx="258.54346010518316" cy="113.80492955607635" r="3.0434782608695654"></circle><circle cx="305.7631314080159" cy="75.38486188655348" r="3.0434782608695654"></circle><circle cx="289.43746399833145" cy="91.4728071473513" r="3.0434782608695654"></circle><circle cx="271.9765768760415" cy="106.18318446907965" r="3.0434782608695654"></circle><circle cx="301.7235872377533" cy="82.46751221327736" r="3.0434782608695654"></circle><circle cx="284.27096008900526" cy="97.19258306234617" r="3.0434782608695654"></circle><circle cx="254.52851514313517" cy="120.91392364340548" r="3.0434782608695654"></circle><circle cx="315.10484278015485" cy="74.85898621089362" r="3.0434782608695654"></circle><circle cx="297.6505811229957" cy="89.60161149545229" r="3.0434782608695654"></circle><circle cx="267.8947149159253" cy="113.31893407431004" r="3.0434782608695654"></circle><circle cx="280.20819966848325" cy="104.37274530277581" r="3.0434782608695654"></circle><circle cx="310.98998088483955" cy="82.00858582592691" r="3.0434782608695654"></circle><circle cx="306.83394128493796" cy="89.21250525527734" r="3.0434782608695654"></circle><circle cx="294.49788037140183" cy="98.12291046200835" r="3.0434782608695654"></circle><circle cx="263.75533528388104" cy="120.53651298607538" r="3.0434782608695654"></circle><circle cx="251.40547155079688" cy="129.42818341597427" r="3.0434782608695654"></circle><circle cx="320.1083727416992" cy="81.62523082149316" r="3.0434782608695654"></circle><circle cx="289.3732317367668" cy="104.0592494294079" r="3.0434782608695654"></circle><circle cx="277.01898025705594" cy="112.94830040303754" r="3.0434782608695654"></circle><circle cx="302.6284630589891" cy="96.47881747372182" r="3.0434782608695654"></circle><circle cx="315.8683469251006" cy="88.89300439655645" r="3.0434782608695654"></circle><circle cx="259.5398591115097" cy="127.85525145156961" r="3.0434782608695654"></circle><circle cx="285.1472861708404" cy="111.4054437674183" r="3.0434782608695654"></circle><circle cx="272.7526195396251" cy="120.26059063168138" r="3.0434782608695654"></circle><circle cx="311.5709721541798" cy="96.22472232037556" r="3.0434782608695654"></circle><circle cx="324.77335609133894" cy="88.6291803183216" r="3.0434782608695654"></circle><circle cx="299.15475719511744" cy="105.06158369348367" r="3.0434782608695654"></circle><circle cx="294.0240298009509" cy="111.23938594136007" r="3.0434782608695654"></circle><circle cx="307.204842804614" cy="103.62948311127407" r="3.0434782608695654"></circle><circle cx="320.38525120976226" cy="96.01980241260857" r="3.0434782608695654"></circle><circle cx="268.3918634385192" cy="127.67657356177175" r="3.0434782608695654"></circle><circle cx="281.5647822911938" cy="120.05662716277385" r="3.0434782608695654"></circle><circle cx="255.9004789330044" cy="136.4641837363699" r="3.0434782608695654"></circle><circle cx="329.0885207382153" cy="95.85391092069611" r="3.0434782608695654"></circle><circle cx="315.92073686302314" cy="103.4835236402841" r="3.0434782608695654"></circle><circle cx="289.59367514394785" cy="118.75956154402347" r="3.0434782608695654"></circle><circle cx="303.3916816418456" cy="112.26437198671906" r="3.0434782608695654"></circle><circle cx="277.0634974954775" cy="127.55457200972214" r="3.0434782608695654"></circle><circle cx="263.90670404548126" cy="135.21909999919762" r="3.0434782608695654"></circle><circle cx="324.5286770462723" cy="103.37001986624502" r="3.0434782608695654"></circle><circle cx="311.3647366730003" cy="111.03019616070371" r="3.0434782608695654"></circle><circle cx="298.20415660004835" cy="118.70335424967674" r="3.0434782608695654"></circle><circle cx="333.0434398652695" cy="103.2819653702139" r="3.0434782608695654"></circle><circle cx="285.5907148364195" cy="127.47178006733681" r="3.0434782608695654"></circle><circle cx="319.87043230870256" cy="110.96754365031772" r="3.0434782608695654"></circle><circle cx="272.4211945064514" cy="135.17606351098573" r="3.0434782608695654"></circle><circle cx="307.1937209759205" cy="119.70588963210558" r="3.0434782608695654"></circle><circle cx="293.5265317670421" cy="126.4006388211183" r="3.0434782608695654"></circle><circle cx="328.2876013375594" cy="110.9241023684932" r="3.0434782608695654"></circle><circle cx="315.09452460842704" cy="118.6567256855257" r="3.0434782608695654"></circle><circle cx="259.7044101186538" cy="143.89657900368115" r="3.0434782608695654"></circle><circle cx="280.8019245397752" cy="135.1578605303508" r="3.0434782608695654"></circle><circle cx="336.6285571237648" cy="110.89539511306819" r="3.0434782608695654"></circle><circle cx="301.8963573012647" cy="126.42034439778662" r="3.0434782608695654"></circle><circle cx="323.40843295281144" cy="118.65475387682324" r="3.0434782608695654"></circle><circle cx="267.59366608374097" cy="142.94580117357913" r="3.0434782608695654"></circle><circle cx="289.0761707546339" cy="135.15580391548698" r="3.0434782608695654"></circle><circle cx="331.65202390768684" cy="118.66195317139818" r="3.0434782608695654"></circle><circle cx="310.5474751829966" cy="127.35990953559231" r="3.0434782608695654"></circle><circle cx="296.92742752131244" cy="134.29287115683533" r="3.0434782608695654"></circle><circle cx="318.3819947802282" cy="126.48410139554203" r="3.0434782608695654"></circle><circle cx="275.8156494910976" cy="142.9834660054506" r="3.0434782608695654"></circle><circle cx="339.8352097244804" cy="118.67580366949139" r="3.0434782608695654"></circle><circle cx="326.52432503992543" cy="126.52252777581553" r="3.0434782608695654"></circle><circle cx="305.0853911454544" cy="134.35850199918886" r="3.0434782608695654"></circle><circle cx="283.9458525697346" cy="143.0256143162731" r="3.0434782608695654"></circle><circle cx="334.61299410614396" cy="126.56298663305681" r="3.0434782608695654"></circle><circle cx="262.7826301972321" cy="151.65769703026373" r="3.0434782608695654"></circle><circle cx="313.4411241974363" cy="135.19945565419405" r="3.0434782608695654"></circle><circle cx="292.00330939137035" cy="143.06936726318824" r="3.0434782608695654"></circle><circle cx="342.65564936977876" cy="126.60439108553017" r="3.0434782608695654"></circle><circle cx="321.2163835659804" cy="134.48669540295228" r="3.0434782608695654"></circle><circle cx="270.5708703497165" cy="150.97274672393723" r="3.0434782608695654"></circle><circle cx="299.78042654196975" cy="142.3992772508131" r="3.0434782608695654"></circle><circle cx="329.2089372494636" cy="134.54770733197523" r="3.0434782608695654"></circle><circle cx="278.5519105994229" cy="151.04514904935849" r="3.0434782608695654"></circle><circle cx="307.7580943583108" cy="142.4850597267925" r="3.0434782608695654"></circle><circle cx="337.16263461999927" cy="134.6061829832964" r="3.0434782608695654"></circle><circle cx="345.0830609759691" cy="134.66199935974356" r="3.0434782608695654"></circle><circle cx="286.47673965648414" cy="151.111431754701" r="3.0434782608695654"></circle><circle cx="315.8644695612813" cy="143.19689807111604" r="3.0434782608695654"></circle><circle cx="323.5884107930592" cy="142.6383061315281" r="3.0434782608695654"></circle><circle cx="294.35714789496785" cy="151.17196374553498" r="3.0434782608695654"></circle><circle cx="331.454367690564" cy="142.70667122197895" r="3.0434782608695654"></circle><circle cx="302.0721602902754" cy="150.68187223060224" r="3.0434782608695654"></circle><circle cx="265.10711188019" cy="159.67687259763352" r="3.0434782608695654"></circle><circle cx="339.29416243056494" cy="142.7701442443011" r="3.0434782608695654"></circle><circle cx="309.9034344881253" cy="150.76647257071565" r="3.0434782608695654"></circle><circle cx="272.8141930230229" cy="159.23489556628968" r="3.0434782608695654"></circle><circle cx="347.1115791407282" cy="142.8291587350577" r="3.0434782608695654"></circle><circle cx="317.8089703679847" cy="151.32405037540943" r="3.0434782608695654"></circle><circle cx="280.6111814206626" cy="159.3057338977912" r="3.0434782608695654"></circle><circle cx="325.4903101231814" cy="150.91224410412116" r="3.0434782608695654"></circle><circle cx="288.37965939970593" cy="159.36762515991603" r="3.0434782608695654"></circle><circle cx="333.25400716051945" cy="150.97540434153137" r="3.0434782608695654"></circle><circle cx="341.0019068588201" cy="151.03315115741472" r="3.0434782608695654"></circle><circle cx="296.12563790779456" cy="159.42211941262929" r="3.0434782608695654"></circle><circle cx="348.7363023157874" cy="151.08613474392226" r="3.0434782608695654"></circle><circle cx="303.79189019563387" cy="159.10184564059395" r="3.0434782608695654"></circle><circle cx="311.51255594581977" cy="159.16855630622288" r="3.0434782608695654"></circle><circle cx="319.26777336422253" cy="159.55226900295082" r="3.0434782608695654"></circle><circle cx="326.9158544804474" cy="159.28141932762455" r="3.0434782608695654"></circle><circle cx="266.65669069026734" cy="167.8810908654557" r="3.0434782608695654"></circle><circle cx="334.6025585983123" cy="159.32956849145276" r="3.0434782608695654"></circle><circle cx="274.3054568110053" cy="167.66530080117658" r="3.0434782608695654"></circle><circle cx="342.28132465158524" cy="159.3732209646739" r="3.0434782608695654"></circle><circle cx="349.95330465063927" cy="159.41297589309187" r="3.0434782608695654"></circle><circle cx="281.97931604596545" cy="167.70847547423" r="3.0434782608695654"></circle><circle cx="289.64338895899425" cy="167.74550202069886" r="3.0434782608695654"></circle><circle cx="297.29972723697045" cy="167.77760501813847" r="3.0434782608695654"></circle><circle cx="304.9315579742204" cy="167.61974329945338" r="3.0434782608695654"></circle><circle cx="312.5788165592706" cy="167.65662860023" r="3.0434782608695654"></circle><circle cx="320.23573710369214" cy="167.85255418862508" r="3.0434782608695654"></circle><circle cx="327.8603764396313" cy="167.7184299892781" r="3.0434782608695654"></circle><circle cx="335.49605267599094" cy="167.74457401476397" r="3.0434782608695654"></circle><circle cx="343.12901206831305" cy="167.7681658913498" r="3.0434782608695654"></circle><circle cx="350.7596454786479" cy="167.7895618728109" r="3.0434782608695654"></circle></g><g style="fill: #dddddd;" id="group-11"><circle cx="267.4172576647091" cy="176.19565217391303" r="3.0434782608695654"></circle><circle cx="275.03257823649733" cy="176.19565217391303" r="3.0434782608695654"></circle><circle cx="282.64691624198286" cy="176.19565217391303" r="3.0434782608695654"></circle><circle cx="290.26047524274577" cy="176.19565217391303" r="3.0434782608695654"></circle><circle cx="297.8734061889214" cy="176.19565217391303" r="3.0434782608695654"></circle><circle cx="305.4858233883636" cy="176.19565217391303" r="3.0434782608695654"></circle><circle cx="313.09781499103406" cy="176.19565217391303" r="3.0434782608695654"></circle><circle cx="320.7094500677701" cy="176.19565217391303" r="3.0434782608695654"></circle><circle cx="328.3207835079625" cy="176.19565217391303" r="3.0434782608695654"></circle></g><g style="fill: #ffffff;" id="group-12"><circle cx="335.93185948199385" cy="176.19565217391303" r="3.0434782608695654"></circle><circle cx="343.5427139363399" cy="176.19565217391303" r="3.0434782608695654"></circle><circle cx="351.15337642263904" cy="176.19565217391303" r="3.0434782608695654"></circle></g></svg>
