<svg xmlns="http://www.w3.org/2000/svg" preserveAspectRatio="xMidYMid meet" viewBox="-1 -7 24 14"><!--Created with ParliamentArch-Westminster (https://github.com/Gouvernathor/ParliamentArch-TS)--><g transform="translate(-1,-1)"><g><rect x="0.05" y="0.05" width="0.9" height="0.9"></rect><rect x="0.05" y="1.05" width="0.9" height="0.9"></rect></g></g><g transform="translate(0,-7)"><g fill="red" rx="0" ry="0"><rect x="0.05" y="5.05" width="0.9" height="0.9"></rect><rect x="0.05" y="4.05" width="0.9" height="0.9"></rect><rect x="0.05" y="3.05" width="0.9" height="0.9"></rect><rect x="0.05" y="2.05" width="0.9" height="0.9"></rect><rect x="0.05" y="1.05" width="0.9" height="0.9"></rect><rect x="0.05" y="0.05" width="0.9" height="0.9"></rect><rect x="1.05" y="5.05" width="0.9" height="0.9"></rect><rect x="1.05" y="4.05" width="0.9" height="0.9"></rect><rect x="1.05" y="3.05" width="0.9" height="0.9"></rect><rect x="1.05" y="2.05" width="0.9" height="0.9"></rect><rect x="1.05" y="1.05" width="0.9" height="0.9"></rect><rect x="1.05" y="0.05" width="0.9" height="0.9"></rect><rect x="2.05" y="5.05" width="0.9" height="0.9"></rect><rect x="2.05" y="4.05" width="0.9" height="0.9"></rect><rect x="2.05" y="3.05" width="0.9" height="0.9"></rect><rect x="2.05" y="2.05" width="0.9" height="0.9"></rect><rect x="2.05" y="1.05" width="0.9" height="0.9"></rect><rect x="2.05" y="0.05" width="0.9" height="0.9"></rect><rect x="3.05" y="5.05" width="0.9" height="0.9"></rect><rect x="3.05" y="4.05" width="0.9" height="0.9"></rect><rect x="3.05" y="3.05" width="0.9" height="0.9"></rect><rect x="3.05" y="2.05" width="0.9" height="0.9"></rect><rect x="3.05" y="1.05" width="0.9" height="0.9"></rect><rect x="3.05" y="0.05" width="0.9" height="0.9"></rect><rect x="4.05" y="5.05" width="0.9" height="0.9"></rect><rect x="4.05" y="4.05" width="0.9" height="0.9"></rect><rect x="4.05" y="3.05" width="0.9" height="0.9"></rect><rect x="4.05" y="2.05" width="0.9" height="0.9"></rect><rect x="4.05" y="1.05" width="0.9" height="0.9"></rect><rect x="4.05" y="0.05" width="0.9" height="0.9"></rect><rect x="5.05" y="5.05" width="0.9" height="0.9"></rect><rect x="5.05" y="4.05" width="0.9" height="0.9"></rect><rect x="5.05" y="3.05" width="0.9" height="0.9"></rect><rect x="5.05" y="2.05" width="0.9" height="0.9"></rect><rect x="5.05" y="1.05" width="0.9" height="0.9"></rect><rect x="5.05" y="0.05" width="0.9" height="0.9"></rect><rect x="6.05" y="5.05" width="0.9" height="0.9"></rect><rect x="6.05" y="4.05" width="0.9" height="0.9"></rect><rect x="6.05" y="3.05" width="0.9" height="0.9"></rect><rect x="6.05" y="2.05" width="0.9" height="0.9"></rect><rect x="6.05" y="1.05" width="0.9" height="0.9"></rect><rect x="6.05" y="0.05" width="0.9" height="0.9"></rect><rect x="7.05" y="5.05" width="0.9" height="0.9"></rect><rect x="7.05" y="4.05" width="0.9" height="0.9"></rect><rect x="7.05" y="3.05" width="0.9" height="0.9"></rect><rect x="7.05" y="2.05" width="0.9" height="0.9"></rect><rect x="7.05" y="1.05" width="0.9" height="0.9"></rect><rect x="7.05" y="0.05" width="0.9" height="0.9"></rect><rect x="8.05" y="5.05" width="0.9" height="0.9"></rect><rect x="8.05" y="4.05" width="0.9" height="0.9"></rect><rect x="8.05" y="3.05" width="0.9" height="0.9"></rect></g><g fill="orange" rx="0" ry="0"><rect x="8.05" y="2.05" width="0.9" height="0.9"></rect><rect x="8.05" y="1.05" width="0.9" height="0.9"></rect><rect x="8.05" y="0.05" width="0.9" height="0.9"></rect><rect x="9.05" y="5.05" width="0.9" height="0.9"></rect><rect x="9.05" y="4.05" width="0.9" height="0.9"></rect><rect x="9.05" y="3.05" width="0.9" height="0.9"></rect><rect x="9.05" y="2.05" width="0.9" height="0.9"></rect><rect x="9.05" y="1.05" width="0.9" height="0.9"></rect><rect x="9.05" y="0.05" width="0.9" height="0.9"></rect><rect x="10.05" y="5.05" width="0.9" height="0.9"></rect><rect x="10.05" y="4.05" width="0.9" height="0.9"></rect><rect x="10.05" y="3.05" width="0.9" height="0.9"></rect><rect x="10.05" y="2.05" width="0.9" height="0.9"></rect><rect x="10.05" y="1.05" width="0.9" height="0.9"></rect><rect x="10.05" y="0.05" width="0.9" height="0.9"></rect><rect x="11.05" y="5.05" width="0.9" height="0.9"></rect><rect x="11.05" y="4.05" width="0.9" height="0.9"></rect><rect x="11.05" y="3.05" width="0.9" height="0.9"></rect><rect x="11.05" y="2.05" width="0.9" height="0.9"></rect><rect x="11.05" y="1.05" width="0.9" height="0.9"></rect><rect x="11.05" y="0.05" width="0.9" height="0.9"></rect><rect x="12.05" y="5.05" width="0.9" height="0.9"></rect><rect x="12.05" y="4.05" width="0.9" height="0.9"></rect><rect x="12.05" y="3.05" width="0.9" height="0.9"></rect><rect x="12.05" y="2.05" width="0.9" height="0.9"></rect><rect x="12.05" y="1.05" width="0.9" height="0.9"></rect><rect x="12.05" y="0.05" width="0.9" height="0.9"></rect><rect x="13.05" y="5.05" width="0.9" height="0.9"></rect><rect x="13.05" y="4.05" width="0.9" height="0.9"></rect><rect x="13.05" y="3.05" width="0.9" height="0.9"></rect><rect x="13.05" y="2.05" width="0.9" height="0.9"></rect><rect x="13.05" y="1.05" width="0.9" height="0.9"></rect><rect x="13.05" y="0.05" width="0.9" height="0.9"></rect><rect x="14.05" y="5.05" width="0.9" height="0.9"></rect><rect x="14.05" y="4.05" width="0.9" height="0.9"></rect><rect x="14.05" y="3.05" width="0.9" height="0.9"></rect><rect x="14.05" y="2.05" width="0.9" height="0.9"></rect><rect x="14.05" y="1.05" width="0.9" height="0.9"></rect><rect x="14.05" y="0.05" width="0.9" height="0.9"></rect><rect x="15.05" y="5.05" width="0.9" height="0.9"></rect><rect x="15.05" y="4.05" width="0.9" height="0.9"></rect><rect x="15.05" y="3.05" width="0.9" height="0.9"></rect><rect x="15.05" y="2.05" width="0.9" height="0.9"></rect><rect x="15.05" y="1.05" width="0.9" height="0.9"></rect><rect x="15.05" y="0.05" width="0.9" height="0.9"></rect><rect x="16.05" y="5.05" width="0.9" height="0.9"></rect><rect x="16.05" y="4.05" width="0.9" height="0.9"></rect><rect x="16.05" y="3.05" width="0.9" height="0.9"></rect><rect x="16.05" y="2.05" width="0.9" height="0.9"></rect></g></g><g transform="translate(0,1)"><g fill="blue" rx="0" ry="0"><rect x="0.05" y="0.05" width="0.9" height="0.9"></rect><rect x="0.05" y="1.05" width="0.9" height="0.9"></rect><rect x="0.05" y="2.05" width="0.9" height="0.9"></rect><rect x="0.05" y="3.05" width="0.9" height="0.9"></rect><rect x="0.05" y="4.05" width="0.9" height="0.9"></rect><rect x="0.05" y="5.05" width="0.9" height="0.9"></rect><rect x="1.05" y="0.05" width="0.9" height="0.9"></rect><rect x="1.05" y="1.05" width="0.9" height="0.9"></rect><rect x="1.05" y="2.05" width="0.9" height="0.9"></rect><rect x="1.05" y="3.05" width="0.9" height="0.9"></rect><rect x="1.05" y="4.05" width="0.9" height="0.9"></rect><rect x="1.05" y="5.05" width="0.9" height="0.9"></rect><rect x="2.05" y="0.05" width="0.9" height="0.9"></rect><rect x="2.05" y="1.05" width="0.9" height="0.9"></rect><rect x="2.05" y="2.05" width="0.9" height="0.9"></rect><rect x="2.05" y="3.05" width="0.9" height="0.9"></rect><rect x="2.05" y="4.05" width="0.9" height="0.9"></rect><rect x="2.05" y="5.05" width="0.9" height="0.9"></rect><rect x="3.05" y="0.05" width="0.9" height="0.9"></rect><rect x="3.05" y="1.05" width="0.9" height="0.9"></rect><rect x="3.05" y="2.05" width="0.9" height="0.9"></rect><rect x="3.05" y="3.05" width="0.9" height="0.9"></rect><rect x="3.05" y="4.05" width="0.9" height="0.9"></rect><rect x="3.05" y="5.05" width="0.9" height="0.9"></rect><rect x="4.05" y="0.05" width="0.9" height="0.9"></rect><rect x="4.05" y="1.05" width="0.9" height="0.9"></rect><rect x="4.05" y="2.05" width="0.9" height="0.9"></rect><rect x="4.05" y="3.05" width="0.9" height="0.9"></rect><rect x="4.05" y="4.05" width="0.9" height="0.9"></rect><rect x="4.05" y="5.05" width="0.9" height="0.9"></rect><rect x="5.05" y="0.05" width="0.9" height="0.9"></rect><rect x="5.05" y="1.05" width="0.9" height="0.9"></rect><rect x="5.05" y="2.05" width="0.9" height="0.9"></rect><rect x="5.05" y="3.05" width="0.9" height="0.9"></rect><rect x="5.05" y="4.05" width="0.9" height="0.9"></rect><rect x="5.05" y="5.05" width="0.9" height="0.9"></rect><rect x="6.05" y="0.05" width="0.9" height="0.9"></rect><rect x="6.05" y="1.05" width="0.9" height="0.9"></rect><rect x="6.05" y="2.05" width="0.9" height="0.9"></rect><rect x="6.05" y="3.05" width="0.9" height="0.9"></rect><rect x="6.05" y="4.05" width="0.9" height="0.9"></rect><rect x="6.05" y="5.05" width="0.9" height="0.9"></rect><rect x="7.05" y="0.05" width="0.9" height="0.9"></rect><rect x="7.05" y="1.05" width="0.9" height="0.9"></rect><rect x="7.05" y="2.05" width="0.9" height="0.9"></rect><rect x="7.05" y="3.05" width="0.9" height="0.9"></rect><rect x="7.05" y="4.05" width="0.9" height="0.9"></rect><rect x="7.05" y="5.05" width="0.9" height="0.9"></rect><rect x="8.05" y="0.05" width="0.9" height="0.9"></rect><rect x="8.05" y="1.05" width="0.9" height="0.9"></rect><rect x="8.05" y="2.05" width="0.9" height="0.9"></rect><rect x="8.05" y="3.05" width="0.9" height="0.9"></rect><rect x="8.05" y="4.05" width="0.9" height="0.9"></rect><rect x="8.05" y="5.05" width="0.9" height="0.9"></rect><rect x="9.05" y="0.05" width="0.9" height="0.9"></rect><rect x="9.05" y="1.05" width="0.9" height="0.9"></rect><rect x="9.05" y="2.05" width="0.9" height="0.9"></rect><rect x="9.05" y="3.05" width="0.9" height="0.9"></rect><rect x="9.05" y="4.05" width="0.9" height="0.9"></rect><rect x="9.05" y="5.05" width="0.9" height="0.9"></rect><rect x="10.05" y="0.05" width="0.9" height="0.9"></rect></g><g fill="rebeccapurple" rx="0" ry="0"><rect x="10.05" y="1.05" width="0.9" height="0.9"></rect><rect x="10.05" y="2.05" width="0.9" height="0.9"></rect><rect x="10.05" y="3.05" width="0.9" height="0.9"></rect><rect x="10.05" y="4.05" width="0.9" height="0.9"></rect><rect x="10.05" y="5.05" width="0.9" height="0.9"></rect><rect x="11.05" y="0.05" width="0.9" height="0.9"></rect><rect x="11.05" y="1.05" width="0.9" height="0.9"></rect><rect x="11.05" y="2.05" width="0.9" height="0.9"></rect><rect x="11.05" y="3.05" width="0.9" height="0.9"></rect><rect x="11.05" y="4.05" width="0.9" height="0.9"></rect><rect x="11.05" y="5.05" width="0.9" height="0.9"></rect><rect x="12.05" y="0.05" width="0.9" height="0.9"></rect><rect x="12.05" y="1.05" width="0.9" height="0.9"></rect><rect x="12.05" y="2.05" width="0.9" height="0.9"></rect><rect x="12.05" y="3.05" width="0.9" height="0.9"></rect><rect x="12.05" y="4.05" width="0.9" height="0.9"></rect><rect x="12.05" y="5.05" width="0.9" height="0.9"></rect><rect x="13.05" y="0.05" width="0.9" height="0.9"></rect><rect x="13.05" y="1.05" width="0.9" height="0.9"></rect><rect x="13.05" y="2.05" width="0.9" height="0.9"></rect><rect x="13.05" y="3.05" width="0.9" height="0.9"></rect><rect x="13.05" y="4.05" width="0.9" height="0.9"></rect><rect x="13.05" y="5.05" width="0.9" height="0.9"></rect><rect x="14.05" y="0.05" width="0.9" height="0.9"></rect><rect x="14.05" y="1.05" width="0.9" height="0.9"></rect><rect x="14.05" y="2.05" width="0.9" height="0.9"></rect><rect x="14.05" y="3.05" width="0.9" height="0.9"></rect><rect x="14.05" y="4.05" width="0.9" height="0.9"></rect><rect x="14.05" y="5.05" width="0.9" height="0.9"></rect><rect x="15.05" y="0.05" width="0.9" height="0.9"></rect><rect x="15.05" y="1.05" width="0.9" height="0.9"></rect><rect x="15.05" y="2.05" width="0.9" height="0.9"></rect><rect x="15.05" y="3.05" width="0.9" height="0.9"></rect><rect x="15.05" y="4.05" width="0.9" height="0.9"></rect><rect x="15.05" y="5.05" width="0.9" height="0.9"></rect><rect x="16.05" y="0.05" width="0.9" height="0.9"></rect><rect x="16.05" y="1.05" width="0.9" height="0.9"></rect><rect x="16.05" y="2.05" width="0.9" height="0.9"></rect><rect x="16.05" y="3.05" width="0.9" height="0.9"></rect><rect x="16.05" y="4.05" width="0.9" height="0.9"></rect><rect x="16.05" y="5.05" width="0.9" height="0.9"></rect><rect x="17.05" y="0.05" width="0.9" height="0.9"></rect><rect x="17.05" y="1.05" width="0.9" height="0.9"></rect><rect x="17.05" y="2.05" width="0.9" height="0.9"></rect><rect x="17.05" y="3.05" width="0.9" height="0.9"></rect><rect x="17.05" y="4.05" width="0.9" height="0.9"></rect><rect x="17.05" y="5.05" width="0.9" height="0.9"></rect><rect x="18.05" y="0.05" width="0.9" height="0.9"></rect><rect x="18.05" y="1.05" width="0.9" height="0.9"></rect><rect x="18.05" y="2.05" width="0.9" height="0.9"></rect><rect x="18.05" y="3.05" width="0.9" height="0.9"></rect><rect x="18.05" y="4.05" width="0.9" height="0.9"></rect><rect x="18.05" y="5.05" width="0.9" height="0.9"></rect><rect x="19.05" y="0.05" width="0.9" height="0.9"></rect><rect x="19.05" y="1.05" width="0.9" height="0.9"></rect><rect x="19.05" y="2.05" width="0.9" height="0.9"></rect><rect x="19.05" y="3.05" width="0.9" height="0.9"></rect><rect x="19.05" y="4.05" width="0.9" height="0.9"></rect><rect x="19.05" y="5.05" width="0.9" height="0.9"></rect></g></g><g transform="translate(21,-5.5)"><g fill="green" rx="0" ry="0"><rect x="0.05" y="0.05" width="0.9" height="0.9"></rect><rect x="1.05" y="0.55" width="0.9" height="0.9"></rect><rect x="0.05" y="1.05" width="0.9" height="0.9"></rect><rect x="1.05" y="1.55" width="0.9" height="0.9"></rect><rect x="0.05" y="2.05" width="0.9" height="0.9"></rect><rect x="1.05" y="2.55" width="0.9" height="0.9"></rect><rect x="0.05" y="3.05" width="0.9" height="0.9"></rect><rect x="1.05" y="3.55" width="0.9" height="0.9"></rect><rect x="0.05" y="4.05" width="0.9" height="0.9"></rect><rect x="1.05" y="4.55" width="0.9" height="0.9"></rect></g><g fill="limegreen" rx="0" ry="0"><rect x="0.05" y="5.05" width="0.9" height="0.9"></rect><rect x="1.05" y="5.55" width="0.9" height="0.9"></rect><rect x="0.05" y="6.05" width="0.9" height="0.9"></rect><rect x="1.05" y="6.55" width="0.9" height="0.9"></rect><rect x="0.05" y="7.05" width="0.9" height="0.9"></rect><rect x="1.05" y="7.55" width="0.9" height="0.9"></rect><rect x="0.05" y="8.05" width="0.9" height="0.9"></rect><rect x="1.05" y="8.55" width="0.9" height="0.9"></rect></g><g fill="yellow" rx="0" ry="0"><rect x="0.05" y="9.05" width="0.9" height="0.9"></rect><rect x="1.05" y="9.55" width="0.9" height="0.9"></rect><rect x="0.05" y="10.05" width="0.9" height="0.9"></rect></g></g></svg>